HIERARCHY
ROOT Hips
{
  OFFSET 5.84602e-005 68.8428 3.50346
  CHANNELS 6 Xposition Yposition Zposition Zrotation Xrotation Yrotation
  JOINT Spine
  {
    OFFSET 0 8.597 -4.6522
    CHANNELS 3 Zrotation Xrotation Yrotation
    JOINT Spine1
    {
      OFFSET 0 7.8454 0.4098
      CHANNELS 3 Zrotation Xrotation Yrotation
      JOINT Spine2
      {
        OFFSET 0 9.7078 -2.1609
        CHANNELS 3 Zrotation Xrotation Yrotation
        JOINT Neck
        {
          OFFSET 0 21.8761 -0.4549
          CHANNELS 3 Zrotation Xrotation Yrotation
          JOINT Head
          {
            OFFSET 0 12.3537 3.3602
            CHANNELS 3 Zrotation Xrotation Yrotation
            End Site
            {
              OFFSET 0.0001 18.9506 0.5657
            }
          }
        }
        JOINT LeftShoulder
        {
          OFFSET 2.2086 21.1115 7.2329
          CHANNELS 3 Zrotation Xrotation Yrotation
          JOINT LeftArm
          {
            OFFSET 13.1193 3.0282 -4.8998
            CHANNELS 3 Zrotation Xrotation Yrotation
            JOINT LeftForeArm
            {
              OFFSET 27.4081 -0.0973053 -0.2375
              CHANNELS 3 Zrotation Xrotation Yrotation
              JOINT LeftHand
              {
                OFFSET 22.8641 0.0662994 -0.1369
                CHANNELS 3 Zrotation Xrotation Yrotation
                JOINT LeftHandIndex1
                {
                  OFFSET 8.8614 0.775009 2.4612
                  CHANNELS 3 Zrotation Xrotation Yrotation
                  JOINT LeftHandIndex2
                  {
                    OFFSET 3.3146 -0.808304 0.5841
                    CHANNELS 3 Zrotation Xrotation Yrotation
                    JOINT LeftHandIndex3
                    {
                      OFFSET 2.2628 -0.552002 0.3989
                      CHANNELS 3 Zrotation Xrotation Yrotation
                      End Site
                      {
                        OFFSET 1.6102 -0.4807 0.2612
                      }
                    }
                  }
                }
                JOINT LeftHandMiddle1
                {
                  OFFSET 8.9937 0.895004 0.2143
                  CHANNELS 3 Zrotation Xrotation Yrotation
                  JOINT LeftHandMiddle2
                  {
                    OFFSET 4.0984 0.0113983 -0.0242
                    CHANNELS 3 Zrotation Xrotation Yrotation
                    JOINT LeftHandMiddle3
                    {
                      OFFSET 2.2716 0.00689697 -0.0138001
                      CHANNELS 3 Zrotation Xrotation Yrotation
                      End Site
                      {
                        OFFSET 2.0404 -0.1441 0.0027
                      }
                    }
                  }
                }
                JOINT LeftHandRing1
                {
                  OFFSET 8.5234 0.597198 -2.0164
                  CHANNELS 3 Zrotation Xrotation Yrotation
                  JOINT LeftHandRing2
                  {
                    OFFSET 3.7188 -0.188293 -0.2328
                    CHANNELS 3 Zrotation Xrotation Yrotation
                    JOINT LeftHandRing3
                    {
                      OFFSET 2.1191 -0.106598 -0.1332
                      CHANNELS 3 Zrotation Xrotation Yrotation
                      End Site
                      {
                        OFFSET 1.8737 -0.2304 -0.0886
                      }
                    }
                  }
                }
                JOINT LeftHandPinky1
                {
                  OFFSET 7.9094 -0.601089 -3.4825
                  CHANNELS 3 Zrotation Xrotation Yrotation
                  JOINT LeftHandPinky2
                  {
                    OFFSET 2.2874 -0.477005 -0.6314
                    CHANNELS 3 Zrotation Xrotation Yrotation
                    JOINT LeftHandPinky3
                    {
                      OFFSET 1.6774 -0.349396 -0.4633
                      CHANNELS 3 Zrotation Xrotation Yrotation
                      End Site
                      {
                        OFFSET 1.4888 -0.4091 -0.3416
                      }
                    }
                  }
                }
                JOINT LeftHandThumb1
                {
                  OFFSET 1.833 -1.3875 1.3896
                  CHANNELS 3 Zrotation Xrotation Yrotation
                  JOINT LeftHandThumb2
                  {
                    OFFSET 3.4129 -1.121 2.5732
                    CHANNELS 3 Zrotation Xrotation Yrotation
                    JOINT LeftHandThumb3
                    {
                      OFFSET 2.2474 -0.804199 1.6192
                      CHANNELS 3 Zrotation Xrotation Yrotation
                      End Site
                      {
                        OFFSET 1.6527 -0.5689 1.1317
                      }
                    }
                  }
                }
              }
            }
          }
        }
        JOINT RightShoulder
        {
          OFFSET -2.2086 21.1115 7.2329
          CHANNELS 3 Zrotation Xrotation Yrotation
          JOINT RightArm
          {
            OFFSET -13.1216 3.0287 -4.9007
            CHANNELS 3 Zrotation Xrotation Yrotation
            JOINT RightForeArm
            {
              OFFSET -27.4081 -0.0973053 -0.2375
              CHANNELS 3 Zrotation Xrotation Yrotation
              JOINT RightHand
              {
                OFFSET -22.8641 0.0664063 -0.1369
                CHANNELS 3 Zrotation Xrotation Yrotation
                JOINT RightHandIndex1
                {
                  OFFSET -8.8614 0.774994 2.4612
                  CHANNELS 3 Zrotation Xrotation Yrotation
                  JOINT RightHandIndex2
                  {
                    OFFSET -3.3146 -0.808304 0.5841
                    CHANNELS 3 Zrotation Xrotation Yrotation
                    JOINT RightHandIndex3
                    {
                      OFFSET -2.2628 -0.552002 0.3989
                      CHANNELS 3 Zrotation Xrotation Yrotation
                      End Site
                      {
                        OFFSET -1.6102 -0.4807 0.2612
                      }
                    }
                  }
                }
                JOINT RightHandMiddle1
                {
                  OFFSET -8.9937 0.894989 0.2143
                  CHANNELS 3 Zrotation Xrotation Yrotation
                  JOINT RightHandMiddle2
                  {
                    OFFSET -4.0984 0.0113983 -0.0242
                    CHANNELS 3 Zrotation Xrotation Yrotation
                    JOINT RightHandMiddle3
                    {
                      OFFSET -2.2716 0.00691223 -0.0138001
                      CHANNELS 3 Zrotation Xrotation Yrotation
                      End Site
                      {
                        OFFSET -2.0404 -0.1441 0.0027
                      }
                    }
                  }
                }
                JOINT RightHandRing1
                {
                  OFFSET -8.5234 0.597198 -2.0164
                  CHANNELS 3 Zrotation Xrotation Yrotation
                  JOINT RightHandRing2
                  {
                    OFFSET -3.7188 -0.188309 -0.2328
                    CHANNELS 3 Zrotation Xrotation Yrotation
                    JOINT RightHandRing3
                    {
                      OFFSET -2.1191 -0.106598 -0.1332
                      CHANNELS 3 Zrotation Xrotation Yrotation
                      End Site
                      {
                        OFFSET -1.8737 -0.2304 -0.0886
                      }
                    }
                  }
                }
                JOINT RightHandPinky1
                {
                  OFFSET -7.9094 -0.601105 -3.4825
                  CHANNELS 3 Zrotation Xrotation Yrotation
                  JOINT RightHandPinky2
                  {
                    OFFSET -2.2874 -0.477005 -0.6314
                    CHANNELS 3 Zrotation Xrotation Yrotation
                    JOINT RightHandPinky3
                    {
                      OFFSET -1.6774 -0.349396 -0.4633
                      CHANNELS 3 Zrotation Xrotation Yrotation
                      End Site
                      {
                        OFFSET -1.4888 -0.4091 -0.3416
                      }
                    }
                  }
                }
                JOINT RightHandThumb1
                {
                  OFFSET -1.833 -1.38751 1.3896
                  CHANNELS 3 Zrotation Xrotation Yrotation
                  JOINT RightHandThumb2
                  {
                    OFFSET -3.41299 -1.12099 2.5732
                    CHANNELS 3 Zrotation Xrotation Yrotation
                    JOINT RightHandThumb3
                    {
                      OFFSET -2.24741 -0.804108 1.6192
                      CHANNELS 3 Zrotation Xrotation Yrotation
                      End Site
                      {
                        OFFSET -1.6527 -0.5689 1.1317
                      }
                    }
                  }
                }
              }
            }
          }
        }
      }
    }
  }
  JOINT RightUpLeg
  {
    OFFSET -9.1966 3.8861 -0.7581
    CHANNELS 3 Zrotation Xrotation Yrotation
    JOINT RightLeg
    {
      OFFSET -0.7359 -41.0265 0
      CHANNELS 3 Zrotation Xrotation Yrotation
      JOINT RightFoot
      {
        OFFSET 0 -40.2855 0
        CHANNELS 3 Zrotation Xrotation Yrotation
        JOINT RightToeBase
        {
          OFFSET 0 -5.6122 11.7359
          CHANNELS 3 Zrotation Xrotation Yrotation
          End Site
          {
            OFFSET 0 0 7.8731
          }
        }
      }
    }
  }
  JOINT LeftUpLeg
  {
    OFFSET 9.1965 3.8864 -0.7581
    CHANNELS 3 Zrotation Xrotation Yrotation
    JOINT LeftLeg
    {
      OFFSET 0.7359 -41.0268 0
      CHANNELS 3 Zrotation Xrotation Yrotation
      JOINT LeftFoot
      {
        OFFSET 0 -40.2855 0
        CHANNELS 3 Zrotation Xrotation Yrotation
        JOINT LeftToeBase
        {
          OFFSET 0 -5.6122 11.7359
          CHANNELS 3 Zrotation Xrotation Yrotation
          End Site
          {
            OFFSET 0 0 7.8731
          }
        }
      }
    }
  }
}
MOTION
Frames:	4
Frame Time:	0.0333333
5.84602e-005 68.8428 3.50346 0 0 -0 0 0 -0 0 0 -0 0 0 -0 0 0 -0.00281655 0 0 -3.88251e-019 0 0 -0.00281655 0 0 -3.88251e-019 0 0 -0 0 0 -0 0 0 -3.88251e-019 0 0 -3.88251e-019 0 0 -3.88251e-019 0 0 -3.88251e-019 -0.0146107 -8.87603e-005 -2.86459e-007 1.43836e-018 -1.21329e-020 3.88251e-019 0 0 -3.88251e-019 -0.0187607 -0.00117629 5.85798e-005 -2.61995e-018 1.94126e-019 -0 0 0 -3.88251e-019 -0.012272 -0.00324898 0.000675346 5.31872e-018 -3.88251e-019 -3.88251e-019 0 0 -3.88251e-019 0 0 -3.88251e-019 0 0 -3.88251e-019 0 0 -0.00281655 0 0 -3.88251e-019 0 0 -0 0 0 -0 0 0 -3.88251e-019 0 0 -3.88251e-019 0 0 -3.88251e-019 0 0 -3.88251e-019 0.0149955 -9.10983e-005 2.64135e-007 4.50839e-019 -3.63986e-020 -7.76503e-019 0 0 -3.88251e-019 0.0189974 -0.00119113 -5.9006e-005 -9.98158e-018 3.88251e-019 -0 0 0 -3.88251e-019 0.0122668 -0.00324777 -0.000673756 -9.33424e-020 1.16475e-018 -3.88251e-019 0 0 -3.88251e-019 0 0 -3.88251e-019 0 0 -3.88251e-019 3.39842 1.33031 -0.0637918 -5.65207e-008 0.834868 -0.000436188 -3.39935 -2.16518 -0.0642563 -8.89002e-024 -1.18485e-023 -1.48106e-024 -3.39844 1.35642 0.0640283 -3.18788e-007 0.782166 -0.000588827 3.39931 -2.13858 0.0634662 1.1399e-023 0 -0 
3.8276 36.4083 12.0852 0 0 -30.3706 2.16672 -0.693081 0.0220387 4.33419 -1.38483 0.0703067 4.33418 -1.38483 0.0703232 -0.000139197 15.5533 9.07096e-005 1.27401 12.8296 -13.0098 -27.1327 2.12015 1.30064 -25.0739 -15.3686 -7.98765 -24.1779 18.2759 0.189815 14.8135 9.06e-007 -1.17637e-006 -3.18055e-015 -6.36111e-015 6.36111e-015 3.71187e-007 -2.77946e-006 2.20584e-006 3.09126e-007 -7.19114e-007 -3.35307e-007 -3.18055e-015 -6.36111e-015 6.36111e-015 -0.0146466 -9.04616e-005 1.73968e-006 3.09118e-007 -7.19071e-007 -3.35399e-007 -3.18055e-015 -6.36111e-015 6.36111e-015 -0.0187428 -0.00117721 6.26437e-005 3.09113e-007 -7.19059e-007 -3.35428e-007 -3.18055e-015 -6.36111e-015 6.36111e-015 -0.0122047 -0.0032323 0.000678287 3.09106e-007 -7.19081e-007 -3.35392e-007 -3.18055e-015 -6.36111e-015 6.36111e-015 3.71187e-007 -2.77946e-006 2.20584e-006 3.09126e-007 -7.19114e-007 -3.35307e-007 4.56124 0.671808 -3.73307 19.2962 -1.47259 -12.2917 26.5021 -14.7197 38.3865 5.19309 0.0368589 -0.00995603 6.82447e-007 6.15449e-007 1.42589e-006 -1.38924e-006 4.93458e-007 3.43701e-006 6.82447e-007 6.15449e-007 1.42589e-006 6.82447e-007 6.15449e-007 1.42589e-006 0.0149512 -9.20945e-005 4.13242e-007 6.82473e-007 6.15635e-007 1.42581e-006 6.82447e-007 6.15449e-007 1.42589e-006 0.018974 -0.00118851 -5.65091e-005 -2.2653e-006 5.73154e-007 3.57037e-006 6.82447e-007 6.15449e-007 1.42589e-006 0.0122699 -0.00324975 -0.000671367 6.82505e-007 6.156e-007 1.4258e-006 6.82447e-007 6.15449e-007 1.42589e-006 -1.38924e-006 4.93458e-007 3.43701e-006 6.82447e-007 6.15449e-007 1.42589e-006 -10.8564 -14.9285 -10.5465 -125.341 84.5478 129.42 -11.675 36.4526 -6.28204 1.39181e-006 2.77376e-006 1.6084e-006 10.8535 -14.9288 10.5433 125.348 84.5486 -129.431 11.6729 36.4522 6.28026 -1.27466e-006 -1.52503e-007 4.87931e-006 
5.59361 21.7277 15.5585 0 0 -44.0374 3.13112 -0.960817 0.0196037 6.26389 -1.91913 0.0916775 6.26388 -1.91913 0.091686 5.52779e-005 22.553 -7.79688e-006 3.79057 18.1611 -19.3699 -39.3738 3.07333 1.88735 -37.853 -22.0441 -12.0587 -34.9962 27.0997 0.200746 21.4795 -3.40928e-006 8.56066e-007 3.18055e-015 1.59028e-014 1.59028e-014 1.28973e-006 -1.71436e-006 -1.36798e-006 -8.59817e-007 1.14291e-006 9.11988e-007 3.18055e-015 1.59028e-014 1.59028e-014 -0.0146137 -9.20125e-005 2.65283e-006 -8.59791e-007 1.14279e-006 9.12134e-007 3.18055e-015 1.59028e-014 1.59028e-014 -0.0187477 -0.00117666 5.9041e-005 -8.59775e-007 1.14276e-006 9.12184e-007 3.18055e-015 1.59028e-014 1.59028e-014 -0.012287 -0.00325469 0.000675781 -8.59763e-007 1.14282e-006 9.12134e-007 3.18055e-015 1.59028e-014 1.59028e-014 1.28973e-006 -1.71436e-006 -1.36798e-006 -8.59817e-007 1.14291e-006 9.11988e-007 6.57441 0.974658 -5.32118 27.6747 -2.06099 -17.7144 44.0706 -15.6623 56.7209 7.47934 -0.128931 0.0348856 -1.0926e-006 -6.4276e-007 -1.11238e-006 -1.0926e-006 -6.4276e-007 -1.11238e-006 -1.0926e-006 -6.4276e-007 -1.11238e-006 -1.0926e-006 -6.4276e-007 -1.11238e-006 0.0150055 -8.66069e-005 -6.90099e-006 -1.09263e-006 -6.42905e-007 -1.11229e-006 -1.0926e-006 -6.4276e-007 -1.11238e-006 0.0190291 -0.00119646 -6.20155e-005 -1.09265e-006 -6.42942e-007 -1.11226e-006 -1.0926e-006 -6.4276e-007 -1.11238e-006 0.0122766 -0.00325287 -0.000679569 -1.09265e-006 -6.42878e-007 -1.11227e-006 -1.0926e-006 -6.4276e-007 -1.11238e-006 -1.0926e-006 -6.4276e-007 -1.11238e-006 -1.0926e-006 -6.4276e-007 -1.11238e-006 -18.6953 -21.8896 -17.3317 -165.099 45.486 167.256 -9.21112 55.0373 -14.3247 -1.55065e-008 5.08413e-007 -3.32502e-007 18.6906 -21.8907 17.3266 165.096 45.4854 -167.26 9.20986 55.037 14.3208 1.35668e-007 4.45719e-007 -2.30731e-006 
5.19267 24.9929 14.8072 0 0 -41.0003 2.89142 -0.809219 0.0303761 5.78412 -1.6159 0.10153 5.78411 -1.6159 0.10153 -0.000180638 20.997 7.24803e-005 3.06494 17.2311 -17.8986 -36.6519 2.8616 1.75687 -34.9246 -20.5817 -11.1128 -32.5045 24.8565 0.19702 19.9982 -5.75862e-006 -4.29678e-006 3.18055e-015 9.54166e-015 9.54166e-015 -4.02735e-007 6.09723e-007 4.31747e-007 1.41245e-030 1.27222e-014 -6.36111e-015 3.18055e-015 9.54166e-015 9.54166e-015 -0.0146262 -9.02163e-005 2.13915e-006 6.36111e-015 6.36111e-015 -9.54166e-015 3.18055e-015 9.54166e-015 9.54166e-015 -0.0187056 -0.0011713 5.80798e-005 1.48694e-006 -7.11476e-007 1.53272e-006 3.18055e-015 9.54166e-015 9.54166e-015 -0.0122483 -0.00324485 0.000683049 -6.36111e-015 3.18055e-015 -3.18055e-015 3.18055e-015 9.54166e-015 9.54166e-015 -4.02735e-007 6.09723e-007 4.31747e-007 1.41245e-030 1.27222e-014 -6.36111e-015 5.97474 0.913674 -4.7634 25.5963 -1.89057 -16.254 39.9605 -16.1018 52.9699 6.85948 -0.497469 0.134453 3.18055e-015 0 7.15625e-015 -4.77083e-015 3.18055e-015 -4.77083e-015 -1.00179e-006 -6.45698e-007 -1.1967e-006 3.18055e-015 0 7.15625e-015 0.0150055 -9.52953e-005 9.66801e-007 -1.00183e-006 -6.45855e-007 -1.19661e-006 3.18055e-015 0 7.15625e-015 0.0189803 -0.00118001 -5.97635e-005 -1.00185e-006 -6.45895e-007 -1.19658e-006 3.18055e-015 0 7.15625e-015 0.0123002 -0.00325135 -0.000675331 -1.00185e-006 -6.45826e-007 -1.1966e-006 3.18055e-015 0 7.15625e-015 -4.77083e-015 3.18055e-015 -4.77083e-015 -1.00179e-006 -6.45698e-007 -1.1967e-006 -16.8615 -20.292 -15.5637 -163.779 54.4177 166.753 -10.5559 50.843 -11.7882 7.95139e-016 1.59028e-015 -0 16.8573 -20.2926 15.5592 163.777 54.4174 -166.757 10.5543 50.8426 11.785 3.52115e-007 -5.2114e-007 -4.00008e-006 
